<svg viewBox="0 0 120 120" width="480" height="480" xmlns="http://www.w3.org/2000/svg">
  <!-- redefi · The Solid Chain · marco corporativo ambar (geometria iter27) + glifo ascii en color-luz (S=100% L=74%) -->
  <path fill="#F5A524" fill-rule="evenodd" d="M 107.1 55.23 L 97.58 55.23 L 97.58 51.84 A 17.59 17.59 0 0 0 80.12 34.12 L 39.81 34.12 A 17.7 17.7 0 0 0 22.12 51.84 L 22.12 55.23 L 12.79 55.23 L 12.79 48.6 A 27.21 27.21 0 0 1 38.1 24.68 L 81.75 24.68 A 27.21 27.21 0 0 1 106.99 47.55 L 106.99 55.23 Z M 81.75 95.18 L 38.1 95.18 A 27.21 27.21 0 0 1 12.82 72.3 L 12.82 64.78 L 22.16 64.78 L 22.16 68.02 A 17.58 17.58 0 0 0 39.69 85.65 L 80.04 85.65 A 17.65 17.65 0 0 0 97.72 68.02 L 97.72 64.78 L 107.06 64.78 L 107.06 71.25 A 27.21 27.21 0 0 1 81.75 95.18 Z"/>
  <g stroke="#7AC4FF" stroke-width="7.21" fill="none" stroke-linecap="round" stroke-linejoin="round"><path d="M45 47 L33 60 L45 73"/><path d="M75 47 L87 60 L75 73"/><path d="M51 54.5 L69 54.5"/><path d="M51 65.5 L69 65.5"/></g>
</svg>